<?xml version="1.0" encoding="UTF-8"?>
<!-- Generator: Adobe Illustrator 16.0.0, SVG Export Plug-In . SVG Version: 6.00 Build 0)  -->
<!DOCTYPE svg PUBLIC "-//W3C//DTD SVG 1.1//EN" "http://www.w3.org/Graphics/SVG/1.1/DTD/svg11.dtd">
<svg version="1.1" xmlns="http://www.w3.org/2000/svg" xmlns:xlink="http://www.w3.org/1999/xlink" x="0px" y="0px" width="600px" height="600px" viewBox="0 0 600 600" enable-background="new 0 0 600 600" xml:space="preserve">
<g id="Layer_1">
</g>
<g id="Layer_2">
</g>
<g id="Layer_3">
</g>
<g id="Layer_4">
</g>
<g id="Layer_5">
</g>
<g id="Layer_6">
</g>
<g id="Layer_7">
</g>
<g id="Layer_8">
</g>
<g id="Layer_9">
</g>
<g id="Layer_10">
</g>
<g id="Layer_11">
</g>
<g id="Layer_12">
</g>
<g id="Layer_13">
</g>
<g id="Layer_14">
</g>
<g id="Layer_15">
</g>
<g id="Layer_16">
</g>
<g id="Layer_17">
</g>
<g id="Layer_18">
</g>
<g id="Layer_19">
</g>
<g id="Layer_20">
</g>
<g id="Layer_21">
</g>
<g id="Layer_22">
</g>
<g id="Layer_23">
	<g>
		<g>
			<g>
				<circle fill-rule="evenodd" clip-rule="evenodd" fill="#1B1464" cx="308.693" cy="293.371" r="200"/>
				<g>
					<path fill="#F9AB10" d="M446,349.115c0,6.828-5.979,11.885-12.811,11.885h-0.188c-6.831,0-12.002-5.057-12.002-11.885v-35.793       c0-6.828,5.171-12.322,12.002-12.322h0.188c6.831,0,12.811,5.494,12.811,12.322V349.115z"/>
					<polygon fill="#F9AB10" points="207,315.199 207,357.918 235.924,334.778      "/>
					<polygon fill="#F9AB10" points="414,315.199 414,357.918 385.075,334.778      "/>
					<circle fill="#F9AB10" cx="263.779" cy="351.021" r="10.457"/>
					<circle fill="#F9AB10" cx="356.336" cy="351.021" r="10.457"/>
					<path fill="#F9AB10" d="M415.421,266.596c-0.504-0.337-1.571-0.633-3.087-0.894c0.077-1.686,0.071-3.365,0.071-5.072       c0-49.528-32.405-91.086-77.405-102.551V175h-3v-16.921V143h-43v15.145V175h-4v-16.855c-44,11.57-76.84,53.062-76.84,102.485       c0,0.528,0.094,1.054,0.104,1.579c0.014,1.043,0.153,2.092,0.206,3.139c-2.875,0.341-4.771,0.751-5.516,1.248       c-8.747,5.834-6.55,7.287-6.55,13.12c0,3.254,10.394,12.397,19.582,19.851c3.007,4.613,9.682,11.552,12.963,13.346       c0,0,56.688,8.785,77.443,8.761c21.988-0.024,83.799-8.882,83.799-8.882c5.827-2.917,14.092-9.933,16.416-16.694       c7.881-6.615,15.374-13.617,15.374-16.381C421.981,273.883,424.168,272.43,415.421,266.596z"/>
					<path fill="none" d="M183.811,361.478c0,28.322,48.663,51.239,108.802,51.239"/>
					<path fill-rule="evenodd" clip-rule="evenodd" fill="#F9AB10" d="M319.075,404h-27.377c-1.338,0-2.666,0.474-3.904,1.109       c-1.05,0.213-2.03,0.547-2.882,0.967c-18.042,8.896-36.604,0.313-53.025-4.651c-22.761-6.88-36.414-21.462-40.947-42.243       c3.164-2.238,5.061-5.895,5.061-10.066v-35.793c0-6.828-5.17-12.322-12.002-12.322h-0.188c-6.831,0-12.811,5.494-12.811,12.322       v35.793c0,6.828,5.979,11.885,12.811,11.885h0.188c0.053,0,0.102,0.225,0.157,0.225c2.412,11.438,8.485,22.441,17.309,30.584       c16.607,15.331,37.181,20.626,58.93,22.879c4.634,0.476,10.373,2.854,14.976,3.719c2.246,0.424,4.854,0.67,7.604,0.813       c1.741,2.354,5.204,2.781,8.726,2.781h27.377c4.972,0,8.925-0.745,8.925-6.756v-0.167C328,409.07,324.047,404,319.075,404z"/>
				</g>
			</g>
		</g>
	</g>
</g>
</svg>