<?xml version="1.0" encoding="UTF-8"?>
<!-- Generator: Adobe Illustrator 16.0.0, SVG Export Plug-In . SVG Version: 6.00 Build 0)  -->
<!DOCTYPE svg PUBLIC "-//W3C//DTD SVG 1.1//EN" "http://www.w3.org/Graphics/SVG/1.1/DTD/svg11.dtd">
<svg version="1.1" xmlns="http://www.w3.org/2000/svg" xmlns:xlink="http://www.w3.org/1999/xlink" x="0px" y="0px" width="600px" height="600px" viewBox="0 0 600 600" enable-background="new 0 0 600 600" xml:space="preserve">
<g id="Layer_1">
</g>
<g id="Layer_2">
</g>
<g id="Layer_3">
</g>
<g id="Layer_4">
	<g>
		<g>
			<g>
				<path fill-rule="evenodd" clip-rule="evenodd" fill="#1B1464" d="M204.62,219.344c-7.358-7.289-16.035-10.543-26.261-9.867      c-0.117-1.144-0.29-2.052-0.292-2.96c-0.016-12.061,0.074-24.123-0.057-36.182c-0.033-3.124,1.108-4.466,4.138-4.066      c4.852,0.638,8.548-1.175,12.038-4.544c4.754-4.59,9.979-8.692,15.002-13.005c3.923-3.372,4.046-3.364,8.087-0.337      c4.886,3.661,9.794,7.294,15.474,11.521c0-5.942,0.003-11.064,0-16.186c-0.003-6.038-0.004-6.129,5.873-6.127      c2.063,0.002,3.098-0.797,4.144-2.521c7.792-12.854,26.232-13.22,34.356-0.551c1.955,3.049,4.005,3.503,7.479,2.537      c0-1.918-0.002-3.886,0-5.854c0.008-8.158,0.104-16.32-0.025-24.476c-0.046-2.83,0.81-4.408,3.786-4.034      c3.023,0.381,4.911-0.812,6.785-3.231c3.967-5.119,9.376-8.336,15.794-9.37c2.784-0.449,3.498-1.692,3.254-4.206      c-0.148-1.521-0.241-3.131,0.113-4.585c0.222-0.907,1.324-1.599,2.031-2.387c0.832,0.799,2.264,1.521,2.378,2.412      c0.325,2.546,0.114,5.161,0.114,8.018c6.741,0.965,12.661,3.271,17.182,8.075c2.834,3.013,5.127,6.281,10.137,5.419      c2.227-0.383,2.239,1.887,2.237,3.594c-0.007,8.868-0.002,17.737-0.001,26.605c0,1.287,0,2.574,0,4.171      c4.807,0,9.327,0,14.225,0c0-2.966,0.107-5.667-0.03-8.355c-0.142-2.808,1.131-3.746,3.807-3.719      c9.69,0.099,8.815-0.743,8.79,8.396c-0.003,1.154,0,2.31,0,4.028c5.916,0,11.444-0.018,16.97,0.004      c9.012,0.034,8.018-0.982,8.069,8.236c0.025,4.138,0.023,8.276,0.048,12.414c0.001,0.221,0.132,0.441,0.323,1.037      c0.815-0.491,1.596-0.879,2.287-1.389c4.567-3.363,9.189-6.66,13.642-10.176c2.268-1.79,4.045-1.803,6.22,0.127      c5.48,4.864,11.241,9.419,16.599,14.413c3.162,2.947,6.447,4.388,10.811,4.102c4.573-0.302,4.792,0.146,4.796,4.759      c0.008,11.352,0.006,22.702,0.008,34.054c0,1.28,0,2.561,0,4.285c-10.414-0.537-19.305,2.47-26.755,10.172      c-0.703-18.927-8.98-32.479-26.809-38.424c-15.761-5.255-29.533-0.618-41.097,11.44c-6.943-23.396-21.84-36.629-46.855-35.806      c-19.21,0.633-31.335,11.702-40.635,35.632C248.389,165.238,204.192,182.625,204.62,219.344z"/>
				<g>
					<path fill-rule="evenodd" clip-rule="evenodd" fill="#FEC300" d="M261.068,327.829c0-11.469-0.005-22.563,0.003-33.657       c0.004-6.136,0.137-12.271,0.032-18.405c-0.226-13.296,11.742-26.214,25.555-26.479c19.854-0.379,39.729-0.377,59.583-0.003       c13.928,0.264,25.624,13.239,25.564,27.117c-0.071,16.074,0.009,32.149,0.146,48.223c0.021,2.522-0.533,3.557-3.302,3.55       c-34.759-0.08-69.52-0.051-104.279-0.064C263.445,328.11,262.521,327.957,261.068,327.829z"/>
					<path fill-rule="evenodd" clip-rule="evenodd" fill="#FEC300" d="M315.988,237.233c-20.327-0.211-36.391-16.758-36.179-37.268       c0.209-19.997,17.01-36.234,37.188-35.939c20.208,0.297,36.465,16.893,36.192,36.949       C352.914,221.362,336.412,237.446,315.988,237.233z"/>
					<path fill-rule="evenodd" clip-rule="evenodd" fill="#FEC300" d="M376.011,258.369c4.733,0,10.126-0.001,15.518,0       c7.088,0,14.174-0.045,21.262,0.015c13.346,0.112,23.396,9.982,23.501,23.239c0.112,14.41-0.031,28.822,0.104,43.231       c0.026,2.773-1.011,3.35-3.512,3.336c-16.537-0.088-33.074-0.116-49.61-0.003c-2.842,0.02-3.586-0.918-3.568-3.652       c0.104-16.179,0.362-32.368-0.13-48.532C379.397,270.166,377.285,264.39,376.011,258.369z"/>
					<path fill-rule="evenodd" clip-rule="evenodd" fill="#FEC300" d="M257.896,258.546c-0.87,2.034-1.675,3.836-2.415,5.661       c-3.259,8.04-2.288,16.488-2.321,24.826c-0.047,11.927-0.031,23.854,0.073,35.781c0.021,2.342-0.524,3.379-3.116,3.365       c-16.892-0.086-33.782-0.035-50.675-0.051c-0.797-0.001-1.594-0.203-2.274-0.296c-0.209-0.376-0.418-0.576-0.418-0.776       c-0.029-15.708-0.332-31.423,0.04-47.121c0.262-11.017,9.009-20.573,20.14-21.207       C230.436,257.96,244.018,258.546,257.896,258.546z"/>
					<path fill-rule="evenodd" clip-rule="evenodd" fill="#FEC300" d="M243.498,248.346c-16.977,0.119-31.025-13.77-31.076-30.721       c-0.05-17.056,13.667-30.848,30.78-30.948c17.096-0.102,30.841,13.474,31.05,30.663       C274.455,234.222,260.563,248.226,243.498,248.346z"/>
					<path fill-rule="evenodd" clip-rule="evenodd" fill="#FEC300" d="M358.804,216.635c0.584-17.634,14.75-30.581,32.738-29.923       c16.036,0.588,29.409,15.018,28.981,31.271c-0.461,17.479-14.665,30.906-32.099,30.348       C371.645,247.794,358.247,233.457,358.804,216.635z"/>
					<path fill-rule="evenodd" clip-rule="evenodd" fill="#FEC300" d="M486.051,327.959c-1.093,0.061-2.243,0.177-3.393,0.179       c-11.583,0.016-23.169-0.111-34.749,0.093c-3.285,0.057-3.896-1.11-3.864-4.086c0.141-13.236,0.142-26.477,0.004-39.713       c-0.045-4.313-0.664-8.621-1.036-13.109c9.098,0,18.315-0.391,27.486,0.112c8.9,0.488,15.662,7.627,15.885,16.605       c0.319,12.875,0.078,25.765,0.06,38.647C486.443,327.015,486.248,327.344,486.051,327.959z"/>
					<path fill-rule="evenodd" clip-rule="evenodd" fill="#FEC300" d="M146.69,327.823c-0.06-1.31-0.166-2.577-0.167-3.843       c-0.014-10.988-0.047-21.978,0.002-32.966c0.055-12.778,7.041-19.739,19.724-19.749c7.9-0.005,15.8,0,23.146,0       c0,18.862,0,37.544,0,56.558C174.693,327.823,160.845,327.823,146.69,327.823z"/>
					<path fill-rule="evenodd" clip-rule="evenodd" fill="#FEC300" d="M427.789,240.394c-0.109-13.002,10.214-23.385,23.284-23.414       c12.835-0.028,23.257,10.216,23.418,23.02c0.165,12.899-10.325,23.58-23.204,23.626       C438.208,263.672,427.901,253.481,427.789,240.394z"/>
					<path fill-rule="evenodd" clip-rule="evenodd" fill="#FEC300" d="M205.186,240.379c-0.127,13.111-10.551,23.398-23.557,23.243       c-12.825-0.154-23.226-10.694-23.101-23.416c0.126-13.043,10.606-23.327,23.637-23.195       C195.093,217.139,205.308,227.51,205.186,240.379z"/>
				</g>
			</g>
			<g>
				<path fill-rule="evenodd" clip-rule="evenodd" fill="#1B1464" d="M252.57,396.085c-1.003,6.671-1.023,6.714,4.124,9.186      c12.248,5.881,24.481,11.797,36.786,17.555c15.57,7.284,32.519,0.397,38.807-15.523c0.55-1.389,1.765-2.813,3.052-3.568      c25.882-15.196,51.795-30.336,77.76-45.386c6.502-3.77,13.458-6.111,21.132-6.47c13.917-0.649,21.959,15.955,15.88,25.869      c-2.971,4.845-6.668,9.701-11.141,13.099c-36.789,27.944-73.842,55.543-110.803,83.26c-7.517,5.637-15.323,6.068-24.03,2.593      c-25.78-10.288-51.687-20.263-77.607-30.199c-2.898-1.112-6.186-1.619-9.307-1.682c-10.398-0.205-20.806-0.073-31.208-0.091      c-4.247-0.008-5.085-0.771-5.091-4.887c-0.038-26.008-0.021-52.018-0.093-78.026c-0.008-3.196,1.415-4.785,4.457-5.283      c18.189-2.97,36.375-5.959,54.559-8.959c4.58-0.756,8.843-0.019,13.071,1.975c20.624,9.72,41.34,19.24,61.956,28.975      c10.786,5.094,15.143,17.55,10.128,28.183c-5.001,10.603-17.172,15.061-28.233,10.02c-13.541-6.173-26.957-12.626-40.43-18.952      C255.183,397.228,254.007,396.728,252.57,396.085z"/>
				<path fill-rule="evenodd" clip-rule="evenodd" fill="#1B1464" d="M334.688,395.951c-1.77-5.07-3.383-9.698-5.115-14.666      c6.834-3.385,13.985-6.95,21.156-10.478c12.187-5.995,24.381-11.973,36.581-17.94c6.554-3.205,13.206-2.812,18.915,1.432      C382.215,368.278,358.424,382.131,334.688,395.951z"/>
			</g>
		</g>
	</g>
</g>
<g id="Layer_5">
</g>
<g id="Layer_6">
</g>
<g id="Layer_7">
</g>
<g id="Layer_8">
</g>
<g id="Layer_9">
</g>
<g id="Layer_10">
</g>
<g id="Layer_11">
</g>
<g id="Layer_12">
</g>
<g id="Layer_13">
</g>
<g id="Layer_14">
</g>
<g id="Layer_15">
</g>
<g id="Layer_16">
</g>
<g id="Layer_17">
</g>
<g id="Layer_18">
</g>
<g id="Layer_19">
</g>
<g id="Layer_20">
</g>
</svg>