<?xml version="1.0" encoding="UTF-8"?>
<!-- Generator: Adobe Illustrator 16.0.0, SVG Export Plug-In . SVG Version: 6.00 Build 0)  -->
<!DOCTYPE svg PUBLIC "-//W3C//DTD SVG 1.1//EN" "http://www.w3.org/Graphics/SVG/1.1/DTD/svg11.dtd">
<svg version="1.1" xmlns="http://www.w3.org/2000/svg" xmlns:xlink="http://www.w3.org/1999/xlink" x="0px" y="0px" width="600px" height="600px" viewBox="0 0 600 600" enable-background="new 0 0 600 600" xml:space="preserve">
<g id="Layer_1">
</g>
<g id="Layer_2">
</g>
<g id="Layer_3">
</g>
<g id="Layer_4">
</g>
<g id="Layer_5">
	<g>
		<path fill-rule="evenodd" clip-rule="evenodd" fill="#FEC300" d="M300.753,354.604c-22.52-3.166-43.781-5.022-64.507-9.42    c-17.05-3.62-18.875-8.119-16.987-25.055c3.351-30.023,19.507-48.725,48.77-56.457c19.695-5.202,20.806-9.456,11.372-26.93    c-4.774-8.842-7.632-19.51-8.359-29.57c-1.444-19.935,9.837-30.803,29.29-30.711c18.742,0.087,29.615,10.483,28.214,30.194    c-0.772,10.85-4.384,22.221-9.517,31.865c-7.779,14.622-6.247,20.005,10.977,24.714c32.912,9.004,48.801,28.249,51.225,60.322    c0.888,11.728-3.742,18.92-14.472,20.87C344.551,348.468,322.14,351.374,300.753,354.604z"/>
		<g>
			<path fill-rule="evenodd" clip-rule="evenodd" fill="#1B1464" d="M486.402,312.764c-6.43-5.043-8.427-10.125-8.738-18.084     c-0.579-14.878-1.398-30.076-4.92-44.454c-19.354-79.027-89.352-133.006-171.313-133.736c-5.67-0.05-13.429-2.692-16.583-6.874     c-12.258-16.246-28.373-23.559-45.839-18.548c-18.334,5.261-28.31,20.289-29.138,41.181c-0.205,5.159-3.879,11.129-7.69,15.027     c-13.588,13.888-27.682,27.31-42.119,40.315c-4.493,4.049-10.427,8.151-16.142,8.911c-24.557,3.255-43.588,18.374-49.193,40.743     c-5.322,21.239,3.615,42.633,23.057,56.974c3.553,2.621,7.543,7.221,7.901,11.214c4.182,46.905,22.071,86.716,58.936,117.005     c6.028,4.951,6.671,9.965,5.157,17.703c-5.09,26.074,6.771,42.781,29.471,48.266c16.033,3.873,27.833-2.783,38.211-14.773     c3.468-4.006,10.068-7.351,15.278-7.412c15.241-0.173,30.704,3.498,45.716,2.001c43.349-4.326,81.014-21.528,111.428-53.671     c4.898-5.179,12.399-7.893,18.699-11.744c26.244,4.094,46.251-8.622,54.529-30.23C511.455,350.8,505.47,327.72,486.402,312.764z      M250.146,112.055c9.122,0,16.517,7.395,16.517,16.517s-7.395,16.517-16.517,16.517c-9.123,0-16.517-7.395-16.517-16.517     S241.023,112.055,250.146,112.055z M119.737,248.59c0.511-14.237,12.371-25.776,26.402-25.696     c14.61,0.085,26.688,12.418,26.518,27.075c-0.177,14.811-12.125,26.206-27.22,25.958     C130.482,275.68,119.196,263.675,119.737,248.59z M225.745,467.389c-9.707,0-17.575-7.869-17.575-17.575     s7.868-17.575,17.575-17.575s17.575,7.869,17.575,17.575S235.451,467.389,225.745,467.389z M409.462,397.621     c-30.714,31.207-68.158,47.484-111.919,47.111c-14.313-0.12-28.776-1.84-37.838-17.594     c-9.328-16.216-26.055-19.591-43.926-17.739c-3.311,0.343-7.84,0.929-9.941-0.829c-29.215-24.396-46.854-55.361-50.999-93.772     c5.858,8.993,11.123,18.446,17.68,26.897c30.147,38.883,69.319,60.056,118.967,64.71c39.188,3.673,75.624-2.073,110.977-18.412     c3.035-1.404,7.248-0.262,10.913-0.3C412.115,391.046,411.759,395.286,409.462,397.621z M424.96,309.996     c-12.277,8.286-22.399,19.824-22.17,34.172c0.259,16.265-8.737,20.822-20.523,25.544     c-69.708,27.943-138.435,14.556-182.803-34.365c-5.159-5.691-9.711-12.032-13.87-18.509c-7.568-11.786-13.46-22.337,1.38-35.085     c11.206-9.628,14.621-25.289,10.833-40.32c-2.277-9.044,1.443-12.698,8.631-15.216c14.068-4.925,28.19-9.709,43.958-15.127     c0.816-7.037,1.689-14.58,2.72-23.477c-26.396,0.5-49.26,10.761-72.828,20.545c10.503-19.11,25.806-33.054,44.465-43.41     c2.078-1.153,6.009,0.409,8.859,1.375c21.301,7.204,37.078,2.104,50.373-15.36c2.781-3.654,8.165-7.204,12.556-7.484     c73.907-4.686,144.412,53.321,153.95,126.189c0.104,0.802-0.467,1.694-1.37,4.696c-24.934-34.068-55.727-58.854-95.474-73.947     c-1.156,9.376-2.128,17.257-3.196,25.898c36.076,16.668,65.455,40.596,84.796,76.812     C431.438,305.548,428.218,307.799,424.96,309.996z M455.152,380.536c-14.437,0.79-27.001-11.082-27.486-25.974     c-0.482-14.8,11.124-27.221,25.859-27.674c13.901-0.427,27.07,12.532,27.169,26.735     C480.79,367.38,469.027,379.774,455.152,380.536z"/>
		</g>
	</g>
</g>
<g id="Layer_6">
</g>
<g id="Layer_7">
</g>
<g id="Layer_8">
</g>
<g id="Layer_9">
</g>
<g id="Layer_10">
</g>
<g id="Layer_11">
</g>
<g id="Layer_12">
</g>
<g id="Layer_13">
</g>
<g id="Layer_14">
</g>
<g id="Layer_15">
</g>
<g id="Layer_16">
</g>
<g id="Layer_17">
</g>
<g id="Layer_18">
</g>
<g id="Layer_19">
</g>
<g id="Layer_20">
</g>
</svg>