<?xml version="1.0" encoding="UTF-8"?>
<!-- Generator: Adobe Illustrator 16.0.0, SVG Export Plug-In . SVG Version: 6.00 Build 0)  -->
<!DOCTYPE svg PUBLIC "-//W3C//DTD SVG 1.1//EN" "http://www.w3.org/Graphics/SVG/1.1/DTD/svg11.dtd">
<svg version="1.1" xmlns="http://www.w3.org/2000/svg" xmlns:xlink="http://www.w3.org/1999/xlink" x="0px" y="0px" width="600px" height="600px" viewBox="0 0 600 600" enable-background="new 0 0 600 600" xml:space="preserve">
<g id="Layer_1">
</g>
<g id="Layer_2">
	<g>
		<g>
			<g>
				<path fill="#1B1464" d="M477.093,179.153c-0.801-0.858-1.922-1.345-3.096-1.345H137.562c-1.157,0-2.265,0.474-3.064,1.312      c-0.8,0.837-1.221,1.966-1.166,3.122l10.196,217.138c0.054,1.149,0.572,2.228,1.439,2.986s2.006,1.138,3.15,1.035l94.79-8.088      l-11.377,39.51c-0.382,1.326-0.094,2.756,0.773,3.83c0.807,1,2.021,1.576,3.297,1.576c0.094,0,0.188-0.003,0.283-0.01      l105.339-6.767c13.963-0.716,20.236-12.653,6.382-14.064l-63.599-0.354l13.48-27.801l163.793-15.036      c2.069-0.189,3.695-1.853,3.838-3.927l13.105-189.937C478.304,181.163,477.894,180.012,477.093,179.153z"/>
				<path fill="#FFFFFF" stroke="#ED1C24" stroke-width="5" stroke-miterlimit="10" d="M485.062,173.177      c-0.801-0.858-1.922-1.346-3.096-1.346H145.53c-1.158,0-2.265,0.474-3.064,1.313c-0.8,0.837-1.221,1.966-1.166,3.122      l10.196,217.138c0.054,1.149,0.572,2.228,1.439,2.987c0.867,0.758,2.006,1.138,3.15,1.034l94.79-8.088l-11.377,39.51      c-0.382,1.326-0.094,2.756,0.774,3.83c0.807,1,2.02,1.576,3.296,1.576c0.094,0,0.188-0.002,0.283-0.011l100.96-6.766      c13.964-0.717,14.046-7.025,0.191-8.434l-53.029-5.984l13.48-27.802l163.793-15.035c2.069-0.189,3.695-1.853,3.838-3.927      l13.105-189.937C486.272,175.187,485.863,174.036,485.062,173.177z"/>
			</g>
			<g>
				<g>
					<path fill="#2E3192" d="M321.136,456.321c-3.827,0-7.103-2.905-7.482-6.794c-0.403-4.139,2.623-7.819,6.759-8.224       l112.384-10.981c4.15-0.404,7.819,2.621,8.225,6.758c0.402,4.139-2.623,7.818-6.76,8.223l-112.384,10.982       C321.629,456.31,321.381,456.321,321.136,456.321z"/>
				</g>
				<g>
					<path fill="#2E3192" d="M353.187,465.692c-1.271,0-2.36-0.964-2.493-2.255c-0.14-1.379,0.863-2.609,2.242-2.751l108.705-11.1       c1.379-0.132,2.611,0.863,2.751,2.242c0.142,1.378-0.862,2.609-2.241,2.75l-108.704,11.1       C353.359,465.688,353.271,465.692,353.187,465.692z"/>
				</g>
				<g>
					<g>
						<path fill="#2E3192" d="M484.073,469.226c6.96,0.211,13.262-3.28,17.216-9.677c4.718-7.627,4.572-17.421-0.353-23.813        c-0.322-0.421-0.708-0.782-1.128-1.063c-28.926-19.605-33.6-43.789-35.359-52.894c-0.107-0.557-0.207-1.065-0.294-1.486        c-0.39-2.65-1.035-5.142-1.914-7.404c-0.008-0.019-0.014-0.037-0.022-0.054c-2.022-5.175-5.21-9.109-9.477-11.693        c-7.948-4.813-18.411-4.078-29.458,2.071c-10.327,5.747-20.1,15.658-27.52,27.909c-7.42,12.249-11.678,25.503-11.987,37.316        c-0.332,12.639,3.862,22.252,11.811,27.065c4.437,2.688,9.615,3.665,15.395,2.907c12.735-0.676,28.995,0.604,44.221,3.444        c-2.779,3.896-6.658,9.795-7.867,13.898c-0.338,1.143-0.246,2.366,0.261,3.451c2.177,4.639,5.638,9.704,6.031,10.274        c0.761,1.098,1.978,1.847,3.263,2.039c1.353,0.209,13.426,1.972,20.66-0.244c2.548-0.784,3.979-3.407,3.257-5.978        C478.995,478.864,482.1,472.438,484.073,469.226z"/>
					</g>
					<g>
						<g>
							<path fill="#F6E94B" d="M495.148,452.701c-1.665,3.941-5.371,8.776-13.595,10.283c0.153,0.063,0.315,0.127,0.464,0.19         c5.802,1.102,11.223-1.415,14.517-6.742c3.475-5.617,3.491-12.692,0.054-17.26c-0.411-0.279-0.8-0.563-1.201-0.843         C496.941,442.104,497.257,447.718,495.148,452.701z"/>
						</g>
						<g>
							<path fill="#F6E94B" d="M466.115,460.036c-1.53-0.374-3.106-0.735-4.73-1.085c-0.023,0.644,0.147,1.764,1.176,3.297         C464.014,461.475,465.249,460.656,466.115,460.036z"/>
						</g>
						<g>
							<path fill="#F6E94B" d="M471.512,461.304c-1.063-0.3-2.161-0.597-3.29-0.888c-0.785,0.623-2.821,2.148-5.474,3.473         c-0.256,0.128-0.551,0.11-0.783-0.031c-0.086-0.053-0.162-0.119-0.227-0.204c-0.149-0.196-0.281-0.388-0.409-0.576         c-1.898,2.57-7.013,9.712-8.377,13.869c1.535,3.197,3.779,6.7,4.835,8.292C459.209,481.646,463.917,470.627,471.512,461.304z         "/>
						</g>
						<g>
							<path fill="#F6E94B" d="M480.496,464.309c-2.341-0.942-5.082-1.87-8.135-2.759c-7.907,9.6-12.706,21.124-13.945,24.308         c2.359,0.317,11.341,1.39,16.794,0.062C472.852,476.052,478.5,467.081,480.496,464.309z"/>
						</g>
						<g>
							<path fill="#F6E94B" d="M421.62,394.893c-3.104-1.861-8.15,0.792-11.26,5.924c-3.113,5.142-3.122,10.854-0.02,12.733         c3.104,1.88,8.162-0.774,11.277-5.916c3.021-4.988,3.109-10.504,0.278-12.544         C421.769,394.999,421.675,394.932,421.62,394.893z"/>
						</g>
						<g>
							<path fill="#E7B143" d="M409.508,415.021c-0.119-0.067-0.215-0.161-0.287-0.267c-3.597-2.494-3.736-9.018-0.248-14.778         c3.578-5.907,9.637-8.807,13.506-6.462c0.184,0.11,0.357,0.237,0.527,0.367c2.295,1.59,12.742,8.507,22.997,10.317         c6.396-15.734,6.495-29.747-0.698-34.104c-9.146-5.539-26.662,6.587-39.046,27.034c-12.386,20.445-15.02,41.588-5.874,47.127         c6.826,4.135,18.315-1.576,28.854-13.241C422.099,421.687,409.636,415.086,409.508,415.021z"/>
						</g>
						<g>
							<path fill="#F6E94B" d="M425.93,397.71c-0.268-0.161-0.521-0.317-0.766-0.47c0.898,3.111,0.196,7.347-2.158,11.234         c-2.417,3.989-5.965,6.605-9.207,7.16c4.282,2.654,11.521,7.697,16.535,14.138c3.192-3.682,6.277-7.897,9.098-12.551         c2.326-3.843,4.308-7.71,5.934-11.492C437.839,404.324,430.432,400.437,425.93,397.71z"/>
						</g>
						<g>
							<path fill="#F6E94B" d="M435.184,437.571l-1.76,1.987l-0.881,0.993l-0.942,0.937l-1.889,1.873         c-0.658,0.593-1.335,1.169-2.003,1.754c-2.713,2.289-5.63,4.371-8.814,6.016c-0.923,0.459-1.857,0.899-2.812,1.302         c23.209-0.361,49.824,4.534,63.985,9.963c8.813-1.147,12.661-6.052,14.334-10.01c2.282-5.4,1.614-11.537-0.38-15.016         c-24.353-17.586-31.365-38.126-34.027-49.62c-0.018,0.382-0.032,0.763-0.06,1.145c-0.057,1.222-0.255,2.433-0.405,3.645         l-0.35,1.799c-0.063,0.299-0.108,0.6-0.184,0.896l-0.236,0.885c-0.562,2.378-1.503,4.642-2.503,6.852         c-0.036,0.083-0.133,0.119-0.215,0.081c-0.081-0.036-0.117-0.128-0.086-0.208l0.005-0.011         c0.892-2.234,1.718-4.501,2.165-6.862l0.193-0.878c0.061-0.294,0.094-0.593,0.141-0.888l0.265-1.776         c0.093-1.195,0.234-2.384,0.236-3.582c0.064-2.388-0.055-4.783-0.39-7.146c-0.321-2.33-0.827-4.686-1.547-6.858         c-1.549-3.991-3.963-7.037-7.149-8.968c-12.98-7.862-35.04,4.727-49.175,28.063c-14.134,23.336-15.072,48.718-2.093,56.58         c2.839,1.72,6.149,2.488,9.858,2.299c0.005,0,0.01-0.001,0.014-0.001c0.007-0.002,0.015-0.002,0.022-0.002l0.051-0.002         c0.155-0.004,0.318-0.017,0.483-0.031c0.056-0.003,0.114-0.009,0.171-0.014c0.587-0.059,1.213-0.163,1.807-0.276         c0.831-0.182,1.667-0.371,2.485-0.639c1.65-0.481,3.244-1.16,4.815-1.884c3.128-1.494,6.042-3.438,8.774-5.604         c0.673-0.556,1.356-1.101,2.022-1.664l1.918-1.789l0.96-0.896l0.899-0.957l1.803-1.911c1.163-1.312,2.254-2.688,3.387-4.029         l3.12-4.248l0.007-0.007c0.052-0.074,0.155-0.089,0.228-0.034c0.07,0.051,0.087,0.15,0.037,0.223l-3.003,4.361         C437.373,434.795,436.316,436.214,435.184,437.571z M419.342,441.958c-7.864,5.347-14.895,6.656-19.798,3.687         c-4.904-2.971-7-9.809-5.904-19.255c1.072-9.224,5.06-19.915,11.23-30.104c6.17-10.187,13.798-18.673,21.478-23.896         c7.863-5.347,14.894-6.655,19.798-3.686c4.903,2.97,7,9.808,5.903,19.252c-0.631,5.436-2.281,11.379-4.787,17.429         c-0.002,0.008-0.006,0.016-0.01,0.022c-1.745,4.212-3.901,8.475-6.433,12.654         C434.648,428.249,427.021,436.735,419.342,441.958z"/>
						</g>
					</g>
					<g>
						<path fill="#FFFFFF" d="M462.682,403.937c1.305,3.518,2.971,6.962,4.809,10.253c1.85,3.295,3.923,6.457,6.239,9.404        c2.313,2.947,4.872,5.687,7.689,8.075c2.811,2.401,5.9,4.416,9.177,5.962l0.024,0.011c0.558,0.263,0.926,0.775,1.039,1.335        l0,0c0.426,1.851,0.746,3.748,0.822,5.712c0.084,1.955-0.079,3.987-0.655,5.984c-0.574,1.989-1.619,3.938-3.121,5.479        c-1.489,1.555-3.361,2.667-5.317,3.347c-1.059,0.368-2.214-0.19-2.582-1.248s0.191-2.214,1.249-2.582h0.003        c1.432-0.502,2.727-1.285,3.728-2.33c1.011-1.039,1.724-2.346,2.148-3.802c0.851-2.935,0.542-6.345-0.222-9.628l0,0        l1.063,1.347c-3.539-1.933-6.767-4.338-9.616-7.083c-2.861-2.734-5.374-5.776-7.596-8.981        c-2.226-3.209-4.162-6.588-5.853-10.072c-1.685-3.493-3.157-7.052-4.294-10.784c-0.106-0.351,0.09-0.72,0.44-0.826        c0.336-0.104,0.691,0.074,0.813,0.4L462.682,403.937z"/>
					</g>
				</g>
			</g>
			<g>
				<g>
					<path fill="#1B1464" d="M290.984,157.086h-128.24c-4.156,0-7.526-3.37-7.526-7.526c0-4.157,3.37-7.527,7.526-7.527h128.24       c4.156,0,7.526,3.37,7.526,7.527C298.511,153.717,295.141,157.086,290.984,157.086z"/>
				</g>
				<g>
					<path fill="#1B1464" d="M254.685,135.218h-87.133c-1.385,0-2.508-1.124-2.508-2.509s1.123-2.509,2.508-2.509h87.133       c1.385,0,2.509,1.124,2.509,2.509S256.069,135.218,254.685,135.218z"/>
				</g>
				<g>
					<g>
						<circle fill="#FEC300" cx="140.966" cy="149.56" r="33.722"/>
					</g>
					<g>
						<path fill="#1B1464" d="M105.37,142.808c3.723-19.628,22.72-32.566,42.349-28.844c19.626,3.723,32.566,22.72,28.843,42.348        c-3.723,19.627-22.72,32.567-42.347,28.844C114.587,181.433,101.647,162.436,105.37,142.808z M171.632,155.377        c3.207-16.909-7.939-33.276-24.85-36.483c-16.908-3.208-33.275,7.94-36.482,24.849s7.939,33.275,24.85,36.482        C152.059,183.433,168.425,172.286,171.632,155.377z"/>
					</g>
					<g>
						<g>
							<circle fill="#FFFFFF" cx="144.131" cy="154.9" r="19.92"/>
						</g>
					</g>
				</g>
			</g>
			<g>
				<g>
					<circle fill="#FEC300" cx="140.841" cy="222.161" r="22.318"/>
				</g>
				<g>
					<path fill="#1B1464" d="M162.422,211.212c6.037,11.899,1.269,26.493-10.631,32.53c-11.899,6.038-26.492,1.269-32.53-10.631       s-1.269-26.493,10.631-32.53C141.791,194.543,156.384,199.313,162.422,211.212z M122.617,231.408       c5.099,10.049,17.423,14.077,27.471,8.978c10.049-5.099,14.077-17.422,8.978-27.472c-5.099-10.048-17.422-14.076-27.471-8.977       S117.518,221.359,122.617,231.408z"/>
				</g>
				<g>
					<g>
						<circle fill="#FFFFFF" cx="142.467" cy="217.171" r="10.812"/>
					</g>
				</g>
			</g>
		</g>
		<g>
			<g>
				<polygon fill="#ED1C24" points="167.678,253.998 193.291,351.475 244.86,335.677 243.371,246.546     "/>
				<polygon fill="#C41E2E" points="229.656,235.83 167.678,253.998 231.385,247.725     "/>
				<g>
					<path fill="#FFFFFF" d="M205.425,286.343c0.053,0.415,0.118,0.755,0.193,1.028c0.104,0.455,0.505,1.388,1.201,2.798       c0.926,1.516,2.301,2.865,4.128,4.034c1.591,1.013,3.356,1.393,5.302,1.145c1.52-0.196,2.937-0.709,4.25-1.536       c0.673-0.42,1.508-1.116,2.499-2.094l1.896-1.797c0.262-0.315,0.745-0.522,1.467-0.615l0.635-0.083       c1.561,0.13,2.459,1.053,2.678,2.771c0.156,1.205-0.43,2.527-1.745,3.969c-1.5,1.701-3.24,3.056-5.214,4.065       c-0.635,0.413-1.616,0.936-2.954,1.584l-3.297,0.424c-2.997,0.386-6.106-0.392-9.321-2.335       c-3.213-1.947-5.534-4.311-6.968-7.099c-1.2-2.295-1.992-4.977-2.387-8.039c-0.556-4.313,0.141-8.41,2.093-12.292       c1.543-3.031,3.693-5.329,6.453-6.911c2.084-1.166,4.228-1.866,6.432-2.104c3.561-0.364,6.826,0.444,9.78,2.422       c3.197,2.134,5.333,4.38,6.413,6.743c1.203,2.672,1.892,4.707,2.072,6.099c0.215,1.67,0.129,2.86-0.249,3.565       c-0.381,0.71-1.312,1.161-2.788,1.351L205.425,286.343z M224.458,278.519l-0.585-1.553c-0.835-2.153-2.115-3.991-3.836-5.519       c-1.723-1.521-3.75-2.343-6.086-2.469c-0.778-0.04-2.104,0.345-3.973,1.149c-1.508,0.665-3.014,2.463-4.527,5.392       c-0.205,0.403-0.472,1.712-0.786,3.917l-0.237,1.66L224.458,278.519z"/>
				</g>
			</g>
			<g>
				<path fill="#808184" d="M253.228,245.597c0-1.25,0.446-2.379,1.339-3.391c0.892-0.833,2.022-1.249,3.39-1.249      c1.25,0,2.335,0.461,3.259,1.383c0.921,0.923,1.382,2.006,1.382,3.257v60.854c0,1.31-0.461,2.455-1.382,3.437      c-0.924,0.981-2.039,1.474-3.347,1.474c-1.249,0-2.337-0.492-3.258-1.474c-0.923-0.981-1.383-2.097-1.383-3.348V245.597z"/>
				<path fill="#808184" d="M270.36,245.781c0-1.369,0.445-2.485,1.338-3.351c0.892-0.863,2.022-1.295,3.391-1.295      c1.307,0,2.395,0.446,3.258,1.339c0.861,0.891,1.293,1.994,1.293,3.301v21.862c2.855-3.271,6.484-5.088,10.886-5.443      c0.772-0.058,1.518-0.09,2.231-0.09c2.199,0,3.553,0.032,4.061,0.09c0.503,0.06,0.906,0.088,1.204,0.088      c4.58,0.775,8.105,2.722,10.573,5.845s3.704,7.035,3.704,11.735v26.858c0,1.31-0.462,2.425-1.385,3.346      c-0.921,0.921-2.039,1.383-3.345,1.383c-1.309,0-2.41-0.445-3.301-1.339c-0.893-0.891-1.339-1.992-1.339-3.3v-26.235      c0-2.794-0.971-5.249-2.901-7.361c-1.932-2.112-5.31-3.167-10.127-3.167c-2.855,0-5.281,1.013-7.273,3.039      c-1.991,2.028-2.988,4.471-2.988,7.333v26.47c0,1.31-0.432,2.399-1.293,3.262c-0.863,0.865-1.951,1.297-3.258,1.297      c-1.309,0-2.425-0.447-3.346-1.339c-0.924-0.893-1.383-1.996-1.383-3.308V245.781z"/>
				<path fill="#808184" d="M320.143,245.591c0-1.367,0.445-2.48,1.339-3.343c0.892-0.861,2.023-1.291,3.393-1.291      c1.306,0,2.409,0.46,3.3,1.379c0.894,0.921,1.339,2.034,1.339,3.339v33.205l17.31-14.992c1.429-1.249,2.768-1.874,4.017-1.874      c1.128,0,2.126,0.447,2.989,1.339c0.861,0.893,1.293,1.902,1.293,3.031c0,1.429-0.684,2.676-2.051,3.747l-16.313,13.107      l19.705,20.268c0.83,1.069,1.247,2.201,1.247,3.391c0,1.191-0.417,2.218-1.25,3.079c-0.834,0.863-1.845,1.296-3.033,1.296      c-1.548,0-2.976-0.715-4.284-2.143l-19.629-21.237v18.648c0,1.31-0.45,2.428-1.351,3.348c-0.901,0.921-2.013,1.384-3.333,1.384      c-1.323,0-2.435-0.463-3.336-1.382c-0.9-0.919-1.351-2.036-1.351-3.342V245.591z"/>
				<path fill="#808184" d="M411.686,286.911c0,6.875-2.445,12.744-7.332,17.604c-4.891,4.86-10.791,7.291-17.706,7.291      c-0.895,0-2.684-0.21-5.367-0.626c-4.292-0.655-7.778-2.588-10.463-5.799v20.343c0,1.31-0.444,2.41-1.338,3.304      c-0.892,0.892-1.992,1.337-3.301,1.337c-1.248,0-2.336-0.463-3.258-1.383c-0.923-0.924-1.382-2.008-1.382-3.258v-18.021      c0-0.298,0-0.626,0-0.983v-40.063c0-1.251,0.431-2.333,1.294-3.257c0.861-0.923,1.919-1.384,3.167-1.384h0.089h0.09      c1.249,0,2.305,0.344,3.166,1.027c0.863,0.685,1.295,1.592,1.295,2.721v2.41c0.357-0.29,0.714-0.55,1.071-0.781      c3.092-3.583,7.257-5.377,12.493-5.377c0.415,0,0.831,0,1.249,0c0.414,0,0.832,0,1.248,0c6.899,0,12.79,2.432,17.667,7.293      C409.245,274.166,411.686,280.035,411.686,286.911z M402.585,286.331c0-4.568-1.481-8.438-4.442-11.613      c-2.962-3.173-6.686-4.762-11.172-4.762c-4.668,0-8.557,1.529-11.665,4.584c-3.111,3.057-4.666,6.927-4.666,11.613      c0,5.221,1.555,9.447,4.666,12.682c3.108,3.232,6.997,4.849,11.665,4.849c4.427,0,8.135-1.72,11.128-5.16      C401.087,295.083,402.585,291.018,402.585,286.331z"/>
				<path fill="#808184" d="M451.732,269.243c-2.193-3.866-5.273-5.451-8.484-6.514c-4.375-1.448-8.178-1.448-8.713-1.448      c-0.532,0-3.578,0.291-8.344,1.448c-3.286,0.797-5.591,2.648-7.786,6.514c-1.957,3.391-2.405,6.93-2.405,10.618v26.858      c0,1.31-0.09,2.425,0.83,3.346c0.922,0.921,1.764,1.383,3.073,1.383c1.309,0,2.137-0.447,3.028-1.341      c0.893-0.893,1.068-1.996,1.068-3.308v-26.291c0-2.921,1.131-5.409,3.123-7.467c1.994-2.056,4.511-3.085,7.427-3.085      c2.913,0,6.939,1.029,8.934,3.085c1.993,2.058,2.517,4.546,2.517,7.467v26.291c0,1.312,0.953,2.415,1.847,3.308      c0.89,0.894,1.51,1.341,2.817,1.341c1.31,0,1.573-0.462,2.495-1.383c0.921-0.921,1.841-2.036,1.841-3.346v-26.858      C455,276.172,453.69,272.634,451.732,269.243z"/>
			</g>
			<g>
				<path fill="#ED1C24" d="M260.885,348.076l2.518-12.067h-4.47l0.326-1.551h10.719l-0.325,1.551h-4.429l-2.519,12.067H260.885z"/>
				<path fill="#ED1C24" d="M267.404,348.076l2.063-9.866h1.486l-0.418,2.017c0.509-0.762,1.006-1.326,1.491-1.69      c0.484-0.366,0.983-0.551,1.491-0.551c0.334,0,0.746,0.122,1.234,0.365l-0.688,1.56c-0.289-0.211-0.609-0.315-0.954-0.315      c-0.59,0-1.193,0.327-1.813,0.983c-0.619,0.658-1.104,1.836-1.458,3.54l-0.836,3.958H267.404z"/>
				<path fill="#ED1C24" d="M280.393,346.849c-0.584,0.501-1.143,0.869-1.683,1.101c-0.537,0.231-1.114,0.35-1.728,0.35      c-0.909,0-1.643-0.267-2.201-0.806c-0.558-0.535-0.836-1.221-0.836-2.057c0-0.551,0.125-1.038,0.378-1.461      c0.248-0.426,0.582-0.766,0.996-1.023c0.415-0.255,0.924-0.442,1.524-0.551c0.377-0.077,1.096-0.135,2.15-0.18      c1.055-0.04,1.813-0.152,2.272-0.333c0.128-0.458,0.193-0.838,0.193-1.143c0-0.39-0.143-0.697-0.429-0.919      c-0.389-0.31-0.959-0.466-1.708-0.466c-0.705,0-1.281,0.158-1.732,0.47c-0.45,0.313-0.775,0.757-0.978,1.332l-1.701-0.147      c0.345-0.979,0.895-1.729,1.648-2.248c0.753-0.52,1.701-0.782,2.847-0.782c1.22,0,2.185,0.292,2.897,0.874      c0.546,0.434,0.816,0.998,0.816,1.691c0,0.526-0.074,1.136-0.23,1.83l-0.548,2.452c-0.174,0.78-0.26,1.417-0.26,1.905      c0,0.311,0.067,0.755,0.204,1.338h-1.7C280.494,347.753,280.429,347.344,280.393,346.849z M281.015,343.078      c-0.237,0.092-0.488,0.164-0.758,0.214s-0.719,0.101-1.352,0.158c-0.979,0.085-1.668,0.195-2.072,0.33      c-0.401,0.133-0.704,0.345-0.909,0.634c-0.205,0.292-0.307,0.614-0.307,0.968c0,0.47,0.162,0.857,0.487,1.16      c0.325,0.304,0.789,0.456,1.389,0.456c0.558,0,1.093-0.148,1.609-0.44c0.513-0.296,0.918-0.706,1.216-1.231      C280.613,344.801,280.847,344.051,281.015,343.078z"/>
				<path fill="#ED1C24" d="M284.32,348.076l2.063-9.866h1.523l-0.362,1.72c0.662-0.676,1.281-1.168,1.856-1.478      c0.576-0.31,1.166-0.467,1.765-0.467c0.8,0,1.428,0.219,1.883,0.652c0.456,0.434,0.682,1.012,0.682,1.737      c0,0.365-0.08,0.94-0.24,1.729l-1.255,5.973h-1.68l1.309-6.253c0.129-0.605,0.194-1.056,0.194-1.347      c0-0.327-0.112-0.595-0.339-0.8c-0.226-0.203-0.554-0.306-0.98-0.306c-0.859,0-1.627,0.311-2.298,0.929      c-0.672,0.62-1.167,1.682-1.483,3.186l-0.955,4.591H284.32z"/>
				<path fill="#ED1C24" d="M295.059,344.703l1.683-0.103c0,0.484,0.073,0.896,0.221,1.237c0.15,0.34,0.424,0.619,0.824,0.836      c0.397,0.217,0.865,0.324,1.396,0.324c0.743,0,1.302-0.149,1.673-0.445c0.371-0.298,0.559-0.648,0.559-1.051      c0-0.29-0.113-0.566-0.335-0.826c-0.229-0.262-0.789-0.581-1.679-0.963c-0.887-0.38-1.457-0.647-1.704-0.803      c-0.414-0.253-0.728-0.551-0.937-0.896c-0.212-0.344-0.315-0.739-0.315-1.185c0-0.781,0.309-1.449,0.929-2.007      c0.618-0.558,1.486-0.838,2.6-0.838c1.238,0,2.182,0.289,2.829,0.86c0.646,0.573,0.982,1.327,1.006,2.262l-1.642,0.112      c-0.026-0.595-0.236-1.065-0.634-1.411c-0.396-0.347-0.955-0.521-1.68-0.521c-0.582,0-1.035,0.135-1.357,0.399      c-0.321,0.267-0.483,0.554-0.483,0.864c0,0.31,0.141,0.583,0.42,0.818c0.186,0.16,0.665,0.407,1.439,0.742      c1.288,0.558,2.099,0.996,2.434,1.32c0.533,0.514,0.799,1.139,0.799,1.875c0,0.49-0.15,0.971-0.45,1.438      c-0.301,0.473-0.759,0.849-1.375,1.13c-0.617,0.282-1.343,0.424-2.179,0.424c-1.14,0-2.109-0.282-2.908-0.846      C295.394,346.891,295.015,345.972,295.059,344.703z"/>
				<path fill="#ED1C24" d="M303.585,351.854l2.854-13.645h1.551l-0.288,1.375c0.576-0.602,1.092-1.017,1.547-1.249      c0.455-0.233,0.937-0.351,1.443-0.351c0.941,0,1.722,0.346,2.34,1.028c0.62,0.686,0.93,1.664,0.93,2.94      c0,1.028-0.169,1.965-0.511,2.811c-0.341,0.845-0.758,1.524-1.253,2.038c-0.496,0.514-0.998,0.891-1.506,1.134      c-0.507,0.24-1.027,0.362-1.561,0.362c-1.182,0-2.1-0.6-2.748-1.801l-1.116,5.356H303.585z M306.911,344.043      c0,0.737,0.053,1.248,0.158,1.532c0.155,0.404,0.408,0.729,0.762,0.978s0.762,0.372,1.227,0.372c0.966,0,1.747-0.545,2.34-1.631      c0.595-1.087,0.892-2.198,0.892-3.33c0-0.836-0.2-1.481-0.6-1.937c-0.397-0.456-0.896-0.684-1.49-0.684      c-0.426,0-0.824,0.114-1.189,0.34s-0.703,0.563-1.017,1.011c-0.312,0.449-0.572,0.999-0.775,1.649      C307.014,342.994,306.911,343.562,306.911,344.043z"/>
				<path fill="#ED1C24" d="M321.645,346.849c-0.583,0.501-1.145,0.869-1.683,1.101s-1.116,0.35-1.727,0.35      c-0.911,0-1.645-0.267-2.201-0.806c-0.558-0.535-0.838-1.221-0.838-2.057c0-0.551,0.125-1.038,0.377-1.461      c0.25-0.426,0.584-0.766,0.997-1.023c0.416-0.255,0.924-0.442,1.525-0.551c0.378-0.077,1.095-0.135,2.15-0.18      c1.054-0.04,1.812-0.152,2.271-0.333c0.129-0.458,0.194-0.838,0.194-1.143c0-0.39-0.143-0.697-0.428-0.919      c-0.391-0.31-0.959-0.466-1.709-0.466c-0.705,0-1.283,0.158-1.731,0.47c-0.451,0.313-0.776,0.757-0.98,1.332l-1.7-0.147      c0.346-0.979,0.895-1.729,1.647-2.248c0.755-0.52,1.704-0.782,2.848-0.782c1.22,0,2.187,0.292,2.897,0.874      c0.545,0.434,0.818,0.998,0.818,1.691c0,0.526-0.076,1.136-0.232,1.83l-0.548,2.452c-0.174,0.78-0.259,1.417-0.259,1.905      c0,0.311,0.067,0.755,0.203,1.338h-1.699C321.746,347.753,321.681,347.344,321.645,346.849z M322.265,343.078      c-0.235,0.092-0.485,0.164-0.756,0.214s-0.72,0.101-1.352,0.158c-0.979,0.085-1.668,0.195-2.071,0.33      c-0.402,0.133-0.706,0.345-0.909,0.634c-0.207,0.292-0.309,0.614-0.309,0.968c0,0.47,0.164,0.857,0.486,1.16      c0.326,0.304,0.791,0.456,1.39,0.456c0.558,0,1.093-0.148,1.608-0.44c0.514-0.296,0.92-0.706,1.218-1.231      C321.866,344.801,322.097,344.051,322.265,343.078z"/>
				<path fill="#ED1C24" d="M325.571,348.076l2.063-9.866h1.486l-0.417,2.017c0.508-0.762,1.005-1.326,1.491-1.69      c0.484-0.366,0.982-0.551,1.491-0.551c0.332,0,0.747,0.122,1.233,0.365l-0.687,1.56c-0.29-0.211-0.609-0.315-0.956-0.315      c-0.59,0-1.193,0.327-1.812,0.983c-0.619,0.658-1.105,1.836-1.459,3.54l-0.835,3.958H325.571z"/>
				<path fill="#ED1C24" d="M338.56,346.849c-0.583,0.501-1.143,0.869-1.683,1.101c-0.536,0.231-1.114,0.35-1.727,0.35      c-0.91,0-1.644-0.267-2.201-0.806c-0.557-0.535-0.837-1.221-0.837-2.057c0-0.551,0.126-1.038,0.378-1.461      c0.249-0.426,0.583-0.766,0.996-1.023c0.416-0.255,0.924-0.442,1.525-0.551c0.378-0.077,1.095-0.135,2.15-0.18      c1.055-0.04,1.812-0.152,2.271-0.333c0.129-0.458,0.193-0.838,0.193-1.143c0-0.39-0.142-0.697-0.428-0.919      c-0.389-0.31-0.959-0.466-1.708-0.466c-0.704,0-1.282,0.158-1.733,0.47c-0.449,0.313-0.775,0.757-0.978,1.332l-1.701-0.147      c0.346-0.979,0.896-1.729,1.648-2.248s1.702-0.782,2.847-0.782c1.22,0,2.188,0.292,2.897,0.874      c0.545,0.434,0.818,0.998,0.818,1.691c0,0.526-0.077,1.136-0.231,1.83l-0.549,2.452c-0.173,0.78-0.26,1.417-0.26,1.905      c0,0.311,0.069,0.755,0.204,1.338h-1.701C338.663,347.753,338.596,347.344,338.56,346.849z M339.181,343.078      c-0.235,0.092-0.487,0.164-0.756,0.214c-0.271,0.05-0.72,0.101-1.352,0.158c-0.979,0.085-1.668,0.195-2.071,0.33      c-0.401,0.133-0.705,0.345-0.91,0.634c-0.205,0.292-0.308,0.614-0.308,0.968c0,0.47,0.164,0.857,0.488,1.16      c0.324,0.304,0.788,0.456,1.388,0.456c0.559,0,1.094-0.148,1.609-0.44c0.513-0.296,0.918-0.706,1.216-1.231      C338.782,344.801,339.014,344.051,339.181,343.078z"/>
				<path fill="#ED1C24" d="M342.488,348.076l2.062-9.866h1.525l-0.363,1.72c0.663-0.676,1.282-1.168,1.858-1.478      c0.575-0.31,1.164-0.467,1.765-0.467c0.798,0,1.426,0.219,1.882,0.652c0.455,0.434,0.681,1.012,0.681,1.737      c0,0.365-0.081,0.94-0.24,1.729l-1.254,5.973h-1.681l1.309-6.253c0.13-0.605,0.196-1.056,0.196-1.347      c0-0.327-0.114-0.595-0.34-0.8c-0.226-0.203-0.553-0.306-0.981-0.306c-0.859,0-1.626,0.311-2.299,0.929      c-0.67,0.62-1.165,1.682-1.481,3.186l-0.955,4.591H342.488z"/>
				<path fill="#ED1C24" d="M358.289,348.076l2.063-9.866h1.681l-2.062,9.866H358.289z M360.741,336.362l0.4-1.904h1.672      l-0.399,1.904H360.741z"/>
				<path fill="#ED1C24" d="M366.51,346.71l-0.28,1.375c-0.4,0.104-0.793,0.157-1.17,0.157c-0.667,0-1.2-0.163-1.597-0.493      c-0.297-0.248-0.445-0.585-0.445-1.011c0-0.218,0.079-0.715,0.238-1.496l1.2-5.731h-1.329l0.271-1.301h1.328l0.512-2.424      l1.923-1.161l-0.754,3.585h1.654l-0.28,1.301h-1.642l-1.144,5.453c-0.144,0.693-0.214,1.107-0.214,1.245      c0,0.198,0.059,0.35,0.172,0.454c0.114,0.105,0.302,0.157,0.562,0.157C365.887,346.82,366.219,346.785,366.51,346.71z"/>
				<path fill="#ED1C24" d="M374.601,346.291c-1.183,1.338-2.394,2.008-3.633,2.008c-0.761,0-1.376-0.22-1.844-0.655      c-0.468-0.438-0.701-0.97-0.701-1.602c0-0.417,0.104-1.128,0.315-2.138l1.188-5.694h1.683l-1.321,6.307      c-0.11,0.527-0.166,0.935-0.166,1.228c0,0.371,0.112,0.661,0.339,0.868c0.228,0.208,0.56,0.313,0.998,0.313      c0.472,0,0.932-0.117,1.381-0.345c0.447-0.23,0.835-0.538,1.161-0.929c0.323-0.392,0.59-0.851,0.793-1.386      c0.137-0.338,0.294-0.938,0.474-1.791l0.893-4.265h1.682l-2.063,9.866h-1.55L374.601,346.291z"/>
				<path fill="#ED1C24" d="M383.937,348.076l2.843-13.618h2.237l1.375,8.823c0.181,1.159,0.298,2.271,0.354,3.335      c0.378-0.917,1.009-2.158,1.895-3.724l4.775-8.435h2.275l-2.844,13.618h-1.791l1.421-6.625c0.329-1.529,0.799-3.246,1.412-5.145      c-0.39,0.885-0.873,1.838-1.449,2.86l-5.072,8.909h-1.756l-1.366-8.732c-0.124-0.8-0.212-1.731-0.268-2.795      c-0.156,1.194-0.308,2.141-0.456,2.841l-1.812,8.687H383.937z"/>
				<path fill="#ED1C24" d="M406.315,346.291c-1.184,1.338-2.395,2.008-3.634,2.008c-0.76,0-1.376-0.22-1.843-0.655      c-0.469-0.438-0.702-0.97-0.702-1.602c0-0.417,0.106-1.128,0.315-2.138l1.189-5.694h1.682l-1.32,6.307      c-0.111,0.527-0.166,0.935-0.166,1.228c0,0.371,0.111,0.661,0.338,0.868c0.228,0.208,0.56,0.313,0.998,0.313      c0.473,0,0.932-0.117,1.381-0.345c0.448-0.23,0.836-0.538,1.161-0.929c0.325-0.392,0.59-0.851,0.793-1.386      c0.136-0.338,0.294-0.938,0.474-1.791l0.893-4.265h1.682l-2.062,9.866h-1.551L406.315,346.291z"/>
				<path fill="#ED1C24" d="M416.812,346.645c-0.963,1.102-1.964,1.654-3.013,1.654c-0.935,0-1.711-0.346-2.334-1.037      c-0.622-0.689-0.934-1.692-0.934-3.006c0-1.2,0.245-2.297,0.739-3.292c0.491-0.994,1.106-1.738,1.849-2.233      c0.738-0.495,1.479-0.745,2.224-0.745c1.227,0,2.152,0.593,2.777,1.776l1.115-5.304h1.672l-2.844,13.618h-1.55L416.812,346.645z       M412.203,343.94c0,0.688,0.068,1.232,0.204,1.627c0.136,0.396,0.369,0.725,0.697,0.99c0.327,0.263,0.721,0.394,1.179,0.394      c0.762,0,1.452-0.396,2.073-1.189c0.828-1.051,1.244-2.353,1.244-3.9c0-0.781-0.203-1.392-0.614-1.831      c-0.409-0.439-0.923-0.659-1.542-0.659c-0.402,0-0.77,0.091-1.102,0.271c-0.328,0.18-0.658,0.482-0.983,0.914      c-0.325,0.429-0.599,0.978-0.823,1.639C412.315,342.857,412.203,343.439,412.203,343.94z"/>
				<path fill="#ED1C24" d="M427.391,346.849c-0.583,0.501-1.144,0.869-1.682,1.101c-0.537,0.231-1.115,0.35-1.727,0.35      c-0.912,0-1.646-0.267-2.202-0.806c-0.558-0.535-0.838-1.221-0.838-2.057c0-0.551,0.126-1.038,0.378-1.461      c0.251-0.426,0.584-0.766,0.997-1.023c0.416-0.255,0.923-0.442,1.525-0.551c0.378-0.077,1.094-0.135,2.149-0.18      c1.056-0.04,1.813-0.152,2.271-0.333c0.131-0.458,0.194-0.838,0.194-1.143c0-0.39-0.142-0.697-0.427-0.919      c-0.39-0.31-0.96-0.466-1.709-0.466c-0.706,0-1.283,0.158-1.733,0.47c-0.448,0.313-0.773,0.757-0.979,1.332l-1.698-0.147      c0.346-0.979,0.894-1.729,1.646-2.248c0.754-0.52,1.703-0.782,2.849-0.782c1.219,0,2.186,0.292,2.896,0.874      c0.546,0.434,0.818,0.998,0.818,1.691c0,0.526-0.076,1.136-0.232,1.83l-0.548,2.452c-0.174,0.78-0.26,1.417-0.26,1.905      c0,0.311,0.069,0.755,0.204,1.338h-1.699C427.493,347.753,427.427,347.344,427.391,346.849z M428.012,343.078      c-0.235,0.092-0.486,0.164-0.756,0.214c-0.271,0.05-0.72,0.101-1.351,0.158c-0.98,0.085-1.669,0.195-2.072,0.33      c-0.402,0.133-0.706,0.345-0.91,0.634c-0.206,0.292-0.308,0.614-0.308,0.968c0,0.47,0.163,0.857,0.487,1.16      c0.325,0.304,0.79,0.456,1.389,0.456c0.558,0,1.094-0.148,1.608-0.44c0.515-0.296,0.919-0.706,1.217-1.231      C427.613,344.801,427.844,344.051,428.012,343.078z"/>
				<path fill="#ED1C24" d="M431.319,348.076l2.843-13.618h1.681l-1.086,5.229c0.626-0.607,1.209-1.041,1.746-1.304      c0.539-0.265,1.092-0.397,1.662-0.397c0.817,0,1.452,0.218,1.904,0.646c0.453,0.432,0.678,1,0.678,1.706      c0,0.348-0.098,0.983-0.297,1.914l-1.217,5.824h-1.679l1.252-5.973c0.181-0.867,0.27-1.413,0.27-1.636      c0-0.324-0.113-0.586-0.334-0.791c-0.224-0.203-0.545-0.306-0.967-0.306c-0.607,0-1.185,0.159-1.737,0.479      c-0.551,0.318-0.982,0.757-1.296,1.311c-0.313,0.553-0.601,1.446-0.859,2.679l-0.882,4.237H431.319z"/>
				<path fill="#ED1C24" d="M442.336,348.076l0.401-1.905h1.894l-0.4,1.905H442.336z M443.396,344.64l1.031-7.397l0.583-2.784h2.036      l-0.634,3.02l-1.968,7.162H443.396z"/>
			</g>
		</g>
		<g>
			<path fill="#ED1C24" d="M187.805,208.526c0,2.351,1.964,3.154,3.303,3.154c1.696,0,2.439-0.327,3.72-1.696l3.809,1.904     c-1.727,2.886-4.523,3.987-7.915,3.987c-4.612,0-8.391-3.63-8.391-8.063c0-4.463,3.778-8.093,8.391-8.093     c4.642,0,8.183,2.737,8.183,8.093c0,0.208,0,0.536-0.03,0.714H187.805z M193.756,205.61c-0.238-1.607-1.339-2.47-2.887-2.47     c-1.814,0-2.826,1.071-2.916,2.47H193.756z"/>
			<path fill="#ED1C24" d="M211.697,204.539v4.552h-9.581v-4.552H211.697z"/>
			<path fill="#ED1C24" d="M222.497,199.719c2.054,0,3.749,0.685,4.999,1.904v-1.458h5.267v15.264h-5.207v-1.726h-0.06     c-1.131,1.25-2.916,2.172-4.999,2.172c-4.463,0-7.587-3.6-7.587-8.063S218.034,199.719,222.497,199.719z M224.074,211.383     c2.053,0,3.541-1.488,3.541-3.571c0-2.113-1.577-3.6-3.541-3.6c-1.993,0-3.57,1.487-3.57,3.6     C220.504,209.895,221.932,211.383,224.074,211.383z"/>
			<path fill="#ED1C24" d="M237.076,200.165h5.267v1.607h0.06c1.19-1.19,2.708-2.053,4.374-2.053c2.797,0,6.694,1.398,6.694,5.653     v10.057h-5.267V206.8c0-1.518-1.041-2.976-2.737-2.976c-1.577,0-3.124,1.458-3.124,2.976v8.629h-5.267V200.165z"/>
			<path fill="#ED1C24" d="M257.486,200.165h5.267v1.607h0.06c1.19-1.19,2.708-2.053,4.374-2.053c2.797,0,6.694,1.398,6.694,5.653     v10.057h-5.267V206.8c0-1.518-1.041-2.976-2.737-2.976c-1.577,0-3.124,1.458-3.124,2.976v8.629h-5.267V200.165z"/>
			<path fill="#ED1C24" d="M285.991,199.719c5.058,0,9.104,3.333,9.104,8.093c0,4.701-3.838,8.063-9.104,8.063     c-5.505,0-9.194-3.362-9.194-8.063C276.797,203.051,280.844,199.719,285.991,199.719z M285.961,211.383     c2.053,0,3.541-1.488,3.541-3.571c0-2.113-1.577-3.6-3.541-3.6c-1.993,0-3.57,1.487-3.57,3.6     C282.391,209.895,283.818,211.383,285.961,211.383z"/>
			<path fill="#ED1C24" d="M303.277,207.425c0,3.005,0.804,4.166,3.006,4.166c2.201,0,3.005-1.16,3.005-4.166v-7.26h5.267v8.54     c0,5.118-2.559,7.171-8.271,7.171s-8.272-2.053-8.272-7.171v-8.54h5.267V207.425z"/>
			<path fill="#ED1C24" d="M318.57,200.165h5.267v1.607h0.06c1.19-1.19,2.708-2.053,4.374-2.053c2.797,0,6.694,1.398,6.694,5.653     v10.057h-5.267V206.8c0-1.518-1.041-2.976-2.737-2.976c-1.577,0-3.124,1.458-3.124,2.976v8.629h-5.267V200.165z"/>
			<path fill="#ED1C24" d="M343.474,207.782c0,2.113,1.637,3.779,3.63,3.779c1.577,0,2.559-0.714,2.559-0.714l1.786,3.66     c0,0-1.727,1.369-5.118,1.369c-4.403,0-8.45-3.57-8.45-8.034c0-4.493,4.017-8.123,8.45-8.123c3.392,0,5.118,1.428,5.118,1.428     l-1.786,3.6c0,0-0.981-0.714-2.559-0.714C345.11,204.033,343.474,205.699,343.474,207.782z"/>
			<path fill="#ED1C24" d="M358.708,208.526c0,2.351,1.964,3.154,3.303,3.154c1.696,0,2.44-0.327,3.72-1.696l3.809,1.904     c-1.727,2.886-4.523,3.987-7.915,3.987c-4.612,0-8.391-3.63-8.391-8.063c0-4.463,3.778-8.093,8.391-8.093     c4.642,0,8.183,2.737,8.183,8.093c0,0.208,0,0.536-0.03,0.714H358.708z M364.659,205.61c-0.238-1.607-1.339-2.47-2.887-2.47     c-1.814,0-2.826,1.071-2.916,2.47H364.659z"/>
			<path fill="#ED1C24" d="M372.959,200.165h5.267v1.607h0.06c1.19-1.19,2.708-2.053,4.374-2.053c2.023,0,4.255,0.744,5.326,2.797     c1.606-1.934,3.392-2.797,5.059-2.797c2.797,0,5.95,1.398,5.95,5.653v10.057h-5.267V206.8c0-1.518-0.803-2.856-2.678-2.856     c-1.666,0-2.38,1.22-2.439,2.38v9.105h-5.267V206.8c0-1.518-0.804-2.856-2.678-2.856c-1.756,0-2.44,1.339-2.44,2.559v8.926     h-5.267V200.165z"/>
			<path fill="#ED1C24" d="M407.384,208.526c0,2.351,1.964,3.154,3.303,3.154c1.696,0,2.44-0.327,3.72-1.696l3.809,1.904     c-1.727,2.886-4.523,3.987-7.915,3.987c-4.612,0-8.391-3.63-8.391-8.063c0-4.463,3.778-8.093,8.391-8.093     c4.642,0,8.183,2.737,8.183,8.093c0,0.208,0,0.536-0.03,0.714H407.384z M413.335,205.61c-0.238-1.607-1.339-2.47-2.887-2.47     c-1.814,0-2.826,1.071-2.916,2.47H413.335z"/>
			<path fill="#ED1C24" d="M421.636,200.165h5.267v1.607h0.06c1.19-1.19,2.708-2.053,4.374-2.053c2.797,0,6.694,1.398,6.694,5.653     v10.057h-5.267V206.8c0-1.518-1.041-2.976-2.737-2.976c-1.577,0-3.124,1.458-3.124,2.976v8.629h-5.267V200.165z"/>
			<path fill="#ED1C24" d="M442.761,194.482h5.267v5.683h3.214v4.017h-3.214v4.85c0,1.428,0.357,2.113,1.19,2.113     c0.685,0,1.31-0.476,1.31-0.476l1.309,4.255c0,0-1.696,0.952-3.868,0.952c-4.195,0-5.207-3.124-5.207-5.832v-5.861h-2.202v-4.017     h2.202V194.482z"/>
		</g>
	</g>
</g>
<g id="Layer_3">
</g>
<g id="Layer_4">
</g>
<g id="Layer_5">
</g>
<g id="Layer_6">
</g>
<g id="Layer_7">
</g>
<g id="Layer_8">
</g>
<g id="Layer_9">
</g>
<g id="Layer_10">
</g>
<g id="Layer_11">
</g>
<g id="Layer_12">
</g>
<g id="Layer_13">
</g>
<g id="Layer_14">
</g>
<g id="Layer_15">
</g>
<g id="Layer_16">
</g>
<g id="Layer_17">
</g>
<g id="Layer_18">
</g>
<g id="Layer_19">
</g>
<g id="Layer_20">
</g>
</svg>