<?xml version="1.0" encoding="UTF-8"?>
<!-- Generator: Adobe Illustrator 16.0.0, SVG Export Plug-In . SVG Version: 6.00 Build 0)  -->
<!DOCTYPE svg PUBLIC "-//W3C//DTD SVG 1.1//EN" "http://www.w3.org/Graphics/SVG/1.1/DTD/svg11.dtd">
<svg version="1.1" xmlns="http://www.w3.org/2000/svg" xmlns:xlink="http://www.w3.org/1999/xlink" x="0px" y="0px" width="600px" height="600px" viewBox="0 0 600 600" enable-background="new 0 0 600 600" xml:space="preserve">
<g id="Layer_1">
</g>
<g id="Layer_2">
</g>
<g id="Layer_3">
</g>
<g id="Layer_4">
</g>
<g id="Layer_5">
</g>
<g id="Layer_6">
</g>
<g id="Layer_7">
</g>
<g id="Layer_8">
</g>
<g id="Layer_9">
	<g>
		<g>
			<polygon fill-rule="evenodd" clip-rule="evenodd" fill="#FEC300" points="287.264,271.684 317.116,275.815 321.937,341.229      299.044,365.507 276.491,346.424    "/>
			<path fill-rule="evenodd" clip-rule="evenodd" fill="#1B1464" d="M325.239,247.438c12.488,15.043,30.08,20.151,46.146,27.766     c7.101,3.363,12.181,7.854,14.713,15.474c4.033,12.13,8.581,24.088,12.722,36.182c0.435,1.271,0.089,3.331-0.715,4.419     c-7.668,10.377-18.504,16.426-30.067,21.328c-15.492,6.567-31.719,10.19-48.444,11.825c-27.849,2.725-55.177,0.459-81.705-8.71     c-12.927-4.467-25.096-10.463-34.878-20.452c-3.334-3.407-5.171-6.488-2.98-11.782c4.633-11.205,8.428-22.765,12.396-34.238     c2.189-6.329,6.528-10.413,12.441-13.119c9.287-4.249,18.865-7.985,27.748-12.958c6.701-3.751,12.51-9.096,18.711-13.736     c0.507-0.38,0.979-0.805,1.84-1.514c7.701,7.816,15.394,15.574,22.989,23.425c0.675,0.699,1.141,2.069,0.998,3.024     c-3.167,21.538-6.415,43.064-9.705,64.583c-0.449,2.933-0.313,5.452,1.766,7.944c3.304,3.956,6.206,8.25,9.775,13.073     c4.1-5.602,8.006-10.688,11.561-16.007c0.715-1.068,0.305-3.054,0.077-4.566c-3.197-21.27-6.478-42.528-9.634-63.805     c-0.199-1.349-0.032-3.297,0.8-4.171C309.324,263.509,317.041,255.77,325.239,247.438z"/>
			<path fill-rule="evenodd" clip-rule="evenodd" fill="#1B1464" d="M308.239,396.55c0,9.462-0.063,18.548,0.093,27.632     c0.016,0.932,1.137,2.31,2.07,2.696c12.035,5.008,19.985,16.894,18.272,32.467c-1.229,11.193-11.969,22.599-23.554,24.632     c-16.889,2.965-32.308-6.881-35.557-23.569c-2.655-13.637,3.513-26.408,16.302-32.547c3.15-1.512,4.04-3.128,3.945-6.407     c-0.234-8.174-0.077-16.358-0.077-24.652c-7.361-0.663-14.474-1.037-21.511-1.979c-28.654-3.832-56.069-11.293-79.824-28.707     c-4.27-3.13-7.894-7.133-12.005-10.498c-1.348-1.102-3.262-1.922-4.986-2.07c-3.618-0.312-7.287,0.009-10.928-0.134     c-2.104-0.083-3.059,0.595-3.996,2.632c-6.449,14.005-19.152,20.153-33.744,17.551c-13.482-2.402-23.796-15.518-23.816-29.396     c-0.023-14.102,9.768-25.983,24.275-29.46c12.608-3.021,26.896,4.113,32.817,16.729c1.32,2.816,2.81,3.758,5.838,3.639     c6.239-0.244,12.5-0.186,18.743,0.01c1.471,0.046,3.503,0.712,4.271,1.801c9.756,13.838,23.667,21.992,38.87,28.077     c16.169,6.468,33.064,10.148,50.43,12.014c14.814,1.593,29.613,1.986,44.391,0.589c25.977-2.453,51.14-7.967,73.806-21.787     c7.97-4.86,14.852-10.879,20.427-18.432c0.892-1.207,2.887-2.187,4.409-2.24c6.631-0.242,13.277-0.165,19.918-0.071     c2.17,0.03,3.427-0.467,4.435-2.706c5.668-12.607,16.469-18.822,30.683-17.972c11.243,0.672,21.923,9.564,25.473,21.586     c5.315,17.993-7.477,36.017-25.43,37.938c-14.441,1.547-26.591-7.391-30.688-17.772c-0.771-1.953-1.841-2.526-3.97-2.785     c-9.347-1.143-16.195,1.93-23.251,8.666c-14.015,13.383-31.985,20.312-50.357,25.79C346.04,393.171,327.59,395.77,308.239,396.55     z M468.688,355.796c6.497,0.059,11.879-4.931,12.067-11.188c0.19-6.382-5.345-12.2-11.641-12.23     c-6.309-0.031-11.656,5.24-11.789,11.619C457.193,350.452,462.285,355.74,468.688,355.796z M299.173,443.029     c-6.484-0.097-11.753,4.917-11.906,11.327c-0.153,6.394,5.019,11.845,11.32,11.933c6.66,0.094,12.077-5.067,12.116-11.545     C310.744,448.359,305.59,443.125,299.173,443.029z M129.078,355.796c6.51-0.05,11.5-5.058,11.56-11.6     c0.059-6.351-5.196-11.713-11.554-11.791c-6.338-0.077-11.658,5.185-11.711,11.585     C117.317,350.768,122.354,355.849,129.078,355.796z"/>
			<path fill-rule="evenodd" clip-rule="evenodd" fill="#1B1464" d="M241.434,169.599c-0.009-9.866,0.451-19.114,3.47-28.125     c4.555-13.606,13.449-23.029,26.981-27.502c19.224-6.354,38.607-6.357,57.48,1.308c15.294,6.21,23.315,18.657,25.774,34.479     c3.376,21.705,0.962,42.953-7.886,63.141c-6.992,15.96-17.952,28.029-35.42,32.999c-18.046,5.132-38.952-1.625-50.777-16.231     c-11.052-13.646-16.349-29.461-18.334-46.612C242.185,178.412,241.825,173.75,241.434,169.599z"/>
			<path fill-rule="evenodd" clip-rule="evenodd" fill="#FEC300" d="M468.688,355.796c-6.403-0.056-11.495-5.344-11.362-11.799     c0.133-6.379,5.48-11.65,11.789-11.619c6.296,0.03,11.831,5.849,11.641,12.23C480.567,350.865,475.186,355.854,468.688,355.796z"/>
			<path fill-rule="evenodd" clip-rule="evenodd" fill="#FEC300" d="M299.173,443.029c6.417,0.096,11.571,5.33,11.53,11.715     c-0.039,6.478-5.456,11.639-12.116,11.545c-6.302-0.088-11.474-5.539-11.32-11.933     C287.42,447.946,292.688,442.933,299.173,443.029z"/>
			<path fill-rule="evenodd" clip-rule="evenodd" fill="#FEC300" d="M129.078,355.796c-6.725,0.053-11.761-5.028-11.705-11.806     c0.053-6.4,5.373-11.662,11.711-11.585c6.357,0.078,11.612,5.44,11.554,11.791C140.578,350.738,135.588,355.746,129.078,355.796z     "/>
		</g>
	</g>
</g>
<g id="Layer_10">
</g>
<g id="Layer_11">
</g>
<g id="Layer_12">
</g>
<g id="Layer_13">
</g>
<g id="Layer_14">
</g>
<g id="Layer_15">
</g>
<g id="Layer_16">
</g>
<g id="Layer_17">
</g>
<g id="Layer_18">
</g>
<g id="Layer_19">
</g>
<g id="Layer_20">
</g>
</svg>