<svg id="Layer_1" data-name="Layer 1" xmlns="http://www.w3.org/2000/svg" viewBox="0 0 422.71 422.71"><defs><style>.cls-1{fill:#d9d9d9;}</style></defs><path class="cls-1" d="M308.29,0H114.42A114.55,114.55,0,0,0,0,114.42V308.29A114.55,114.55,0,0,0,114.42,422.71H308.29A114.55,114.55,0,0,0,422.71,308.29V114.42A114.55,114.55,0,0,0,308.29,0Zm89.64,308.29a89.74,89.74,0,0,1-89.64,89.64H114.42a89.74,89.74,0,0,1-89.64-89.64V114.42a89.74,89.74,0,0,1,89.64-89.64H308.29a89.74,89.74,0,0,1,89.64,89.64Z"/><path class="cls-1" d="M211.36,95.77A115.59,115.59,0,1,0,326.94,211.36,115.72,115.72,0,0,0,211.36,95.77Zm0,206.39a90.81,90.81,0,1,1,90.8-90.8A90.91,90.91,0,0,1,211.36,302.16Z"/><path class="cls-1" d="M329.7,54.73a34.16,34.16,0,1,0,34.16,34.15A34.19,34.19,0,0,0,329.7,54.73Zm0,43.52a9.37,9.37,0,1,1,9.38-9.37A9.38,9.38,0,0,1,329.7,98.25Z"/></svg>