<svg id="Layer_1" data-name="Layer 1" xmlns="http://www.w3.org/2000/svg" viewBox="0 0 512 422.71"><defs><style>.cls-1{fill:#d9d9d9;}</style></defs><path class="cls-1" d="M194.82,422.71c-85.46,0-153-14.93-185.31-40.95l-.63-.51-.57-.57C.64,373-1.88,362.93,1.42,353l.3-.82a26.76,26.76,0,0,1,24.42-16.8c21.86-.38,41-3,58.34-8C56.8,314.5,37.57,292.21,26.12,260a23.94,23.94,0,0,1,8.34-27.88,24.44,24.44,0,0,1,7.28-3.71A161.66,161.66,0,0,1,8.63,169l-.2-.66-.13-.68C6.14,156.87,11,145.75,19.82,141a24.79,24.79,0,0,1,11.8-3.33,125.19,125.19,0,0,1-9.42-28.78C17,81.94,21.28,55,35,28.65l3.18-6.36a17.71,17.71,0,0,1,28.36-4.6l5.78,5.79C118,71.4,159,94.13,229.75,109.68A125.45,125.45,0,0,1,263.6,37.39C286.16,13.74,316.27.47,348.4,0h.21c23.44,0,52.52,13.38,70.1,22.82C433.8,17.9,452,10.25,470.84,2.17a23.83,23.83,0,0,1,26.64,4.69c6.8,6.8,8.68,16.39,5.07,25.71Q500.5,38.3,497.9,43.8a23.79,23.79,0,0,1,6.94,4.79,25.77,25.77,0,0,1,6.41,24.06l-.23.82c-7.23,23.29-21.11,42.26-39.47,54.16C468.48,290.92,345.52,422.71,194.82,422.71ZM38.3,365c30.45,17.22,88.48,27.64,156.52,27.64,65.41,0,127.13-28.08,173.8-79.07,47.05-51.41,73-119.68,73-192.23v-.82A17.68,17.68,0,0,1,451,104.91c11.81-6.26,21.37-16.91,27.59-30.53a17.71,17.71,0,0,1-17.06-27.89,96.13,96.13,0,0,0,6.69-10.59C452,42.74,436.49,48.88,423.07,53a19.2,19.2,0,0,1-14.78-1.59C384.39,38,362.13,30.08,348.71,30c-49.53.76-89.8,43.18-89.8,94.61A17.71,17.71,0,0,1,237.77,142C156.16,126,107.8,101.84,57.52,51.3,50.31,68.57,48.34,86,51.67,103.14c3.38,17.4,12.37,34.83,26,50.42A17.7,17.7,0,0,1,59.8,182.34,81.86,81.86,0,0,1,43.29,176c10.51,22.81,28.57,43.91,51.28,59.48a17.7,17.7,0,0,1-11.32,32.25,79.28,79.28,0,0,1-23.5-5.08c12.73,25.94,33.08,40.21,64.43,45.66a17.71,17.71,0,0,1,5.26,33.1C102.73,355.57,73.52,363.17,38.3,365Z"/></svg>