<svg id="Layer_1" data-name="Layer 1" xmlns="http://www.w3.org/2000/svg" viewBox="0 0 540.57 406.13"><defs><style>.cls-1{fill:#d9d9d9;}</style></defs><path class="cls-1" d="M350.64,179.08,232.18,114.26A21.76,21.76,0,0,0,200,133.35V261.87A21.73,21.73,0,0,0,232,281l118.47-63.7a21.76,21.76,0,0,0,.13-38.25ZM231.4,245.7v-96l88.53,48.44Z"/><path class="cls-1" d="M532.27,95.86l0-.25c-.45-4.32-5-42.71-23.64-62.23-21.57-23-46-25.76-57.78-27.1-1-.11-1.87-.21-2.67-.32l-.93-.09C376.33.71,269.27,0,268.2,0H268C266.94,0,159.88.71,88.36,5.87l-1,.09c-.76.11-1.6.2-2.51.31C73.27,7.61,49.08,10.4,27.45,34.2,9.67,53.52,4.53,91.09,4,95.31l-.07.55C3.78,97.65,0,140.41,0,183.33v40.12c0,42.92,3.78,85.68,3.94,87.48l0,.27c.46,4.25,5,41.93,23.55,61.47,20.28,22.19,45.93,25.13,59.72,26.71,2.18.25,4.06.46,5.34.69l1.24.17c40.93,3.89,169.26,5.81,174.7,5.89h.33c1.07,0,108.12-.71,179-5.86l.94-.1c.89-.12,1.9-.23,3-.34,11.56-1.23,35.62-3.78,56.95-27.25,17.78-19.32,22.92-56.89,23.45-61.11l.06-.54c.16-1.8,3.94-44.56,3.94-87.48V183.33C536.21,140.41,532.43,97.66,532.27,95.86ZM504.79,223.45c0,39.73-3.47,80.64-3.8,84.4-1.33,10.34-6.75,34.11-15.41,43.53-13.36,14.69-27.07,16.14-37.09,17.2-1.21.13-2.33.25-3.34.38-68.57,5-171.58,5.72-176.33,5.75-5.32-.08-131.77-2-171.46-5.7-2-.33-4.23-.59-6.54-.85C79.07,366.82,63,365,50.63,351.38l-.29-.31C41.83,342.2,36.57,320,35.23,308c-.25-2.84-3.81-44.23-3.81-84.52V183.33c0-39.68,3.46-80.55,3.8-84.39,1.59-12.18,7.11-34.51,15.41-43.54C64.4,40.27,78.91,38.59,88.5,37.48c.92-.1,1.78-.2,2.56-.31,69.57-5,173.32-5.72,177.05-5.75s107.44.77,176.38,5.75l2.77.33c9.87,1.13,24.79,2.83,38.48,17.43l.13.14c8.51,8.86,13.77,31.48,15.11,43.72.24,2.68,3.81,44.17,3.81,84.54Z"/></svg>